<svg xmlns="http://www.w3.org/2000/svg" xml:space="preserve" width="100%" height="100%" style="shape-rendering:geometricPrecision; text-rendering:geometricPrecision; image-rendering:optimizeQuality; fill-rule:evenodd; clip-rule:evenodd" viewBox="0 0.05 0.4 0.5" xmlns:xlink="http://www.w3.org/1999/xlink">
    <defs>
        <style type="text/css">
            <![CDATA[ .fil0 {
                fill: #aaa;
                fill-rule: nonzero
            }

            ]]> </style>
    </defs>
    <g id="Ebene_x0020_1">
        <metadata id="CorelCorpID_0Corel-Layer"/>
        <path class="fil0" d="M0.38368 0.14929c0,0.01214 -0.00211,0.02667 -0.00635,0.04375 -0.00437,0.01707 -0.00762,0.02568 -0.00973,0.02568 -0.00226,0 -0.00494,-0.00282 -0.00805,-0.00833 -0.00324,-0.0055 -0.00719,-0.011 -0.01185,-0.01665 -0.00466,-0.00564 -0.00988,-0.00875 -0.01566,-0.00931 -0.03048,0.04106 -0.04558,0.07662 -0.04558,0.10668 0,0.01439 0.00338,0.02794 0.01044,0.0405l0.05531 0.06068c0.02145,0.02455 0.03232,0.04995 0.03232,0.0762 0,0.0151 -0.00353,0.02935 -0.01058,0.04247 -0.00706,0.01327 -0.01694,0.0199 -0.02964,0.0199 -0.00155,-0.02131 -0.00875,-0.03909 -0.02145,-0.05334l-0.219 -0.24116c-0.01186,0.00776 -0.02046,0.01947 -0.02597,0.03542 -0.00536,0.0158 -0.00804,0.0309 -0.00804,0.04529 0,0.00932 0.00296,0.01948 0.00875,0.03034 0.00578,0.01087 0.0127,0.02131 0.02088,0.03147 0.00805,0.01002 0.01623,0.02004 0.02456,0.0302 0.00832,0.01002 0.01524,0.0206 0.02102,0.03161 0.00579,0.01101 0.00875,0.02117 0.00875,0.03062 0,0.01326 -0.00437,0.02526 -0.01298,0.03598 -0.00875,0.01073 -0.0182,0.01609 -0.02836,0.01609l-0.08524 0c-0.00112,-0.00141 -0.00169,-0.0031 -0.00169,-0.00494 0,-0.00437 0.00198,-0.00691 0.00579,-0.00748 0.00663,-0.00084 0.01298,-0.00395 0.01891,-0.00945 0.00592,-0.00565 0.00889,-0.01157 0.00889,-0.01778 0,-0.00748 -0.00523,-0.02554 -0.01567,-0.05405 -0.01058,-0.0285 -0.0158,-0.04939 -0.0158,-0.06223 0,-0.0158 0.00197,-0.03189 0.00578,-0.0484 0.00395,-0.01665 0.01115,-0.03373 0.02188,-0.05165 0.01058,-0.01778 0.0237,-0.03175 0.03922,-0.04191l-0.02638 -0.02836c-0.02117,-0.02441 -0.03175,-0.04967 -0.03175,-0.07549 0,-0.02371 0.00959,-0.04601 0.02892,-0.06689l0.01073 0c0.00113,0.02356 0.00818,0.0429 0.02145,0.05785l0.15818 0.17371 0.00015 0.00268c0.00874,-0.04191 0.02511,-0.07845 0.04924,-0.1095 -0.04078,-0.01002 -0.06124,-0.03147 -0.06124,-0.06449 0,-0.01326 0.00155,-0.02469 0.00438,-0.03443 0.00296,-0.00959 0.0062,-0.01623 0.00973,-0.02004 0.00367,-0.00367 0.00706,-0.00621 0.01002,-0.00762l0.00423 -0.0024c0.00311,0.00212 0.00508,0.00466 0.00579,0.00762 0.00085,0.00283 0.00155,0.00551 0.00198,0.00777 0.00042,0.00239 0.00169,0.00508 0.00395,0.00818 0.00225,0.00296 0.00719,0.00635 0.01481,0.00988 0.00762,0.00353 0.01807,0.00748 0.03119,0.01157 0.00776,0.00226 0.01383,0.00423 0.0182,0.00621 0.00438,0.00197 0.00988,0.00494 0.01637,0.00889 0.00649,0.00395 0.01129,0.00917 0.01439,0.01566 0.00325,0.00649 0.0048,0.01411 0.0048,0.023z"/>
    </g>
</svg>